<svg width="14" height="14" viewBox="0 0 14 14" fill="none" xmlns="http://www.w3.org/2000/svg">
<path d="M3.56514 1.45086L5.83373 3.72002L3.77106 5.78211L1.50248 3.51352C1.21792 4.20571 1.14453 4.96662 1.29155 5.70043C1.43857 6.43424 1.79944 7.10814 2.32869 7.63728C2.85795 8.16641 3.53194 8.52711 4.26579 8.67396C4.99963 8.82081 5.76052 8.74724 6.45264 8.46252L10.1131 12.1235C10.1672 12.1777 10.2315 12.2208 10.3022 12.2501C10.373 12.2794 10.4489 12.2946 10.5255 12.2946C10.6021 12.2946 10.6779 12.2794 10.7487 12.2501C10.8195 12.2208 10.8838 12.1777 10.9379 12.1235L12.1757 10.8857C12.2299 10.8316 12.273 10.7673 12.3023 10.6965C12.3317 10.6257 12.3468 10.5499 12.3468 10.4733C12.3468 10.3967 12.3317 10.3208 12.3023 10.25C12.273 10.1793 12.2299 10.115 12.1757 10.0609L8.51473 6.40044C8.79967 5.70826 8.8734 4.94723 8.72662 4.21322C8.57984 3.47921 8.21912 2.80506 7.68989 2.27569C7.16039 1.74666 6.48625 1.38608 5.75229 1.23931C5.01834 1.09254 4.25736 1.16614 3.56514 1.45086Z" fill="#FFB347"/>
</svg>
