<svg width="23" height="22" viewBox="0 0 23 22" fill="none" xmlns="http://www.w3.org/2000/svg">
<path d="M3.56293 6.54114V17.1842C3.56431 17.6249 3.74872 18.0471 4.07588 18.3587C4.40305 18.6703 4.84638 18.8459 5.30906 18.8472H17.1828C17.6454 18.8459 18.0888 18.6703 18.4159 18.3587C18.7431 18.0471 18.9275 17.6249 18.9289 17.1842V6.54114" stroke="white" stroke-opacity="0.4" stroke-linecap="round" stroke-linejoin="round"/>
<path d="M19.1035 2.88257H3.38831C2.71325 2.88257 2.16602 3.40375 2.16602 4.04666V5.04445C2.16602 5.68736 2.71325 6.20854 3.38831 6.20854H19.1035C19.7786 6.20854 20.3258 5.68736 20.3258 5.04445V4.04666C20.3258 3.40375 19.7786 2.88257 19.1035 2.88257Z" stroke="white" stroke-opacity="0.4" stroke-linejoin="round"/>
<path d="M14.0398 12.8605L11.246 15.5212L8.45215 12.8605" stroke="white" stroke-opacity="0.4" stroke-linecap="round" stroke-linejoin="round"/>
<path d="M11.2459 14.6021V9.53455" stroke="white" stroke-opacity="0.4" stroke-linecap="round" stroke-linejoin="round"/>
</svg>
